<?xml version="1.0" encoding="UTF-8"?>
<svg width="18px" height="18px" viewBox="0 0 18 18" version="1.1" xmlns="http://www.w3.org/2000/svg" xmlns:xlink="http://www.w3.org/1999/xlink">
    <!-- Generator: Sketch 52.2 (67145) - http://www.bohemiancoding.com/sketch -->
    <title>broken</title>
    <desc>Created with Sketch.</desc>
    <g id="Page-1" stroke="none" stroke-width="1" fill="none" fill-rule="evenodd">
        <g id="broken" transform="translate(-3.000000, -3.000000)">
            <path d="M0,0 L24,0 L24,24 L0,24 L0,0 Z M0,0 L24,0 L24,24 L0,24 L0,0 Z M21,19 C21,20.1 20.1,21 19,21 L5,21 C3.9,21 3,20.1 3,19 L3,5 C3,3.9 3.9,3 5,3 L19,3 C20.1,3 21,3.9 21,5 L21,19 Z" id="Shape"></path>
            <polygon id="Path" points="0 0 24 0 24 24 0 24"></polygon>
            <path d="M21,5 L21,11.59 L18,8.58 L14,12.59 L10,8.59 L6,12.59 L3,9.58 L3,5 C3,3.9 3.9,3 5,3 L19,3 C20.1,3 21,3.9 21,5 Z M18,11.42 L21,14.43 L21,19 C21,20.1 20.1,21 19,21 L5,21 C3.9,21 3,20.1 3,19 L3,12.42 L6,15.41 L10,11.41 L14,15.41 L18,11.42 Z" id="Shape" fill="#474747" fill-rule="nonzero"></path>
        </g>
    </g>
</svg>